<mxfile host="app.diagrams.net" modified="2024-06-03T20:36:27.077Z" agent="Mozilla/5.0 (Windows NT 10.0; Win64; x64) AppleWebKit/537.36 (KHTML, like Gecko) Chrome/125.0.0.0 Safari/537.36" etag="1NMhycQUnHmemMaqKK_e" version="24.4.13" type="device">
  <diagram name="Page-1" id="bLqNmkRba2NGORORPSZ6">
    <mxGraphModel dx="-438" dy="2245" grid="1" gridSize="10" guides="1" tooltips="1" connect="1" arrows="1" fold="1" page="1" pageScale="1" pageWidth="2000" pageHeight="700" math="0" shadow="0">
      <root>
        <mxCell id="0" />
        <mxCell id="1" parent="0" />
        <mxCell id="y0Fj-1lW7r01eOwDqa-p-22" value="" style="rounded=0;whiteSpace=wrap;html=1;fillColor=default;fillStyle=auto;" parent="1" vertex="1">
          <mxGeometry x="2030" y="-970" width="1580" height="940" as="geometry" />
        </mxCell>
        <mxCell id="y0Fj-1lW7r01eOwDqa-p-24" value="" style="rounded=1;whiteSpace=wrap;html=1;fillColor=#BFBFBF;fontColor=#333333;strokeColor=#666666;movable=1;resizable=1;rotatable=1;deletable=1;editable=1;locked=0;connectable=1;" parent="1" vertex="1">
          <mxGeometry x="2050" y="-952.5" width="210" height="900" as="geometry" />
        </mxCell>
        <mxCell id="y0Fj-1lW7r01eOwDqa-p-25" value="&lt;font style=&quot;font-size: 32px;&quot;&gt;Learny&lt;/font&gt;" style="rounded=1;whiteSpace=wrap;html=1;fillColor=#0A0A0A;fontColor=#FCFCFC;fontSize=16;movable=1;resizable=1;rotatable=1;deletable=1;editable=1;locked=0;connectable=1;" parent="1" vertex="1">
          <mxGeometry x="2060" y="-902.5" width="190" height="60" as="geometry" />
        </mxCell>
        <mxCell id="y0Fj-1lW7r01eOwDqa-p-26" value="Main Page" style="rounded=1;whiteSpace=wrap;html=1;fontSize=16;fillColor=#d5e8d4;strokeColor=#82b366;" parent="1" vertex="1">
          <mxGeometry x="2060" y="-752.5" width="190" height="40" as="geometry" />
        </mxCell>
        <mxCell id="y0Fj-1lW7r01eOwDqa-p-27" value="Schedule" style="rounded=1;whiteSpace=wrap;html=1;fontSize=16;" parent="1" vertex="1">
          <mxGeometry x="2060" y="-692.5" width="190" height="40" as="geometry" />
        </mxCell>
        <mxCell id="y0Fj-1lW7r01eOwDqa-p-28" value="Courses" style="rounded=1;whiteSpace=wrap;html=1;fontSize=16;" parent="1" vertex="1">
          <mxGeometry x="2060" y="-632.5" width="190" height="40" as="geometry" />
        </mxCell>
        <mxCell id="y0Fj-1lW7r01eOwDqa-p-29" value="Sprawdziany" style="rounded=1;whiteSpace=wrap;html=1;fontSize=16;" parent="1" vertex="1">
          <mxGeometry x="2060" y="-572.5" width="190" height="40" as="geometry" />
        </mxCell>
        <mxCell id="y0Fj-1lW7r01eOwDqa-p-30" value="Oceny końcowe" style="rounded=1;whiteSpace=wrap;html=1;fontSize=16;" parent="1" vertex="1">
          <mxGeometry x="2060" y="-512.5" width="190" height="40" as="geometry" />
        </mxCell>
        <mxCell id="y0Fj-1lW7r01eOwDqa-p-32" value="Decyzje" style="rounded=1;whiteSpace=wrap;html=1;fontSize=16;" parent="1" vertex="1">
          <mxGeometry x="2060" y="-392.5" width="190" height="40" as="geometry" />
        </mxCell>
        <mxCell id="y0Fj-1lW7r01eOwDqa-p-33" value="Profil" style="rounded=1;whiteSpace=wrap;html=1;fontSize=16;" parent="1" vertex="1">
          <mxGeometry x="2060" y="-822.5" width="190" height="40" as="geometry" />
        </mxCell>
        <mxCell id="y0Fj-1lW7r01eOwDqa-p-34" value="" style="line;strokeWidth=2;html=1;" parent="1" vertex="1">
          <mxGeometry x="2060" y="-772.5" width="190" height="10" as="geometry" />
        </mxCell>
        <mxCell id="y0Fj-1lW7r01eOwDqa-p-35" value="" style="line;strokeWidth=2;html=1;" parent="1" vertex="1">
          <mxGeometry x="2060" y="-342.5" width="190" height="10" as="geometry" />
        </mxCell>
        <mxCell id="y0Fj-1lW7r01eOwDqa-p-36" value="Aplikacja mobilna" style="rounded=1;whiteSpace=wrap;html=1;fontSize=16;" parent="1" vertex="1">
          <mxGeometry x="2060" y="-322.5" width="190" height="40" as="geometry" />
        </mxCell>
        <mxCell id="y0Fj-1lW7r01eOwDqa-p-37" value="Preferencje" style="rounded=1;whiteSpace=wrap;html=1;fontSize=16;" parent="1" vertex="1">
          <mxGeometry x="2060" y="-140" width="190" height="40" as="geometry" />
        </mxCell>
        <mxCell id="y0Fj-1lW7r01eOwDqa-p-38" value="Język" style="rounded=1;whiteSpace=wrap;html=1;fontSize=16;" parent="1" vertex="1">
          <mxGeometry x="2060" y="-262.5" width="190" height="40" as="geometry" />
        </mxCell>
        <mxCell id="y0Fj-1lW7r01eOwDqa-p-39" value="Platności" style="rounded=1;whiteSpace=wrap;html=1;fontSize=16;" parent="1" vertex="1">
          <mxGeometry x="2060" y="-200" width="190" height="40" as="geometry" />
        </mxCell>
        <mxCell id="y0Fj-1lW7r01eOwDqa-p-40" value="&lt;h1 style=&quot;margin-top: 0px;&quot;&gt;Main Page&lt;/h1&gt;&lt;div&gt;&lt;br&gt;&lt;/div&gt;&lt;div&gt;Это страница на которой будет отображаться:&lt;/div&gt;&lt;div&gt;&lt;br&gt;&lt;/div&gt;&lt;div&gt;1. Расписание на данную неделю в мине варианте&lt;/div&gt;&lt;div&gt;2.&amp;nbsp;&lt;/div&gt;" style="text;html=1;whiteSpace=wrap;overflow=hidden;rounded=0;" parent="1" vertex="1">
          <mxGeometry x="2060" y="-1250" width="510" height="230" as="geometry" />
        </mxCell>
        <mxCell id="y0Fj-1lW7r01eOwDqa-p-41" value="" style="rounded=1;whiteSpace=wrap;html=1;fillColor=#d5e8d4;strokeColor=#82b366;" parent="1" vertex="1">
          <mxGeometry x="2615" y="-1165" width="120" height="60" as="geometry" />
        </mxCell>
        <mxCell id="y0Fj-1lW7r01eOwDqa-p-42" style="edgeStyle=orthogonalEdgeStyle;rounded=0;orthogonalLoop=1;jettySize=auto;html=1;exitX=0;exitY=0.5;exitDx=0;exitDy=0;entryX=1;entryY=0.5;entryDx=0;entryDy=0;" parent="1" source="y0Fj-1lW7r01eOwDqa-p-43" target="y0Fj-1lW7r01eOwDqa-p-41" edge="1">
          <mxGeometry relative="1" as="geometry" />
        </mxCell>
        <mxCell id="y0Fj-1lW7r01eOwDqa-p-43" value="&amp;nbsp;какая сейчас часть страницы дизайнится" style="text;html=1;align=center;verticalAlign=middle;whiteSpace=wrap;rounded=0;fontSize=17;" parent="1" vertex="1">
          <mxGeometry x="2785" y="-1152.5" width="240" height="35" as="geometry" />
        </mxCell>
        <mxCell id="y0Fj-1lW7r01eOwDqa-p-44" value="" style="rounded=0;whiteSpace=wrap;html=1;strokeWidth=2;" parent="1" vertex="1">
          <mxGeometry x="2333" y="-832.5" width="530" height="550" as="geometry" />
        </mxCell>
        <mxCell id="y0Fj-1lW7r01eOwDqa-p-45" value="" style="rounded=0;whiteSpace=wrap;html=1;strokeWidth=2;" parent="1" vertex="1">
          <mxGeometry x="3006" y="-832.5" width="530" height="550" as="geometry" />
        </mxCell>
      </root>
    </mxGraphModel>
  </diagram>
</mxfile>
